Calmadita-Regular.ufo
<glyph name="five" format="2">
  <advance width="547"/>
  <unicode hex="0035"/>
  <outline>
    <contour>
      <point x="50" y="72" type="line"/>
      <point x="85" y="20" type="line"/>
      <point x="165" y="-9"/>
      <point x="200" y="-15"/>
      <point x="273" y="-15" type="curve" smooth="yes"/>
      <point x="401" y="-15"/>
      <point x="497" y="78"/>
      <point x="497" y="216" type="curve" smooth="yes"/>
      <point x="497" y="334"/>
      <point x="398" y="419"/>
      <point x="274" y="419" type="curve" smooth="yes"/>
      <point x="223" y="419"/>
      <point x="180" y="407"/>
      <point x="122" y="383" type="curve"/>
      <point x="147" y="347" type="line"/>
      <point x="178" y="577" type="line"/>
      <point x="439" y="579" type="line"/>
      <point x="486" y="648" type="line"/>
      <point x="438" y="695" type="line"/>
      <point x="383" y="657" type="line"/>
      <point x="108" y="657" type="line"/>
      <point x="75" y="400" type="line"/>
      <point x="118" y="327" type="line"/>
      <point x="252" y="359" type="line"/>
      <point x="345" y="344"/>
      <point x="408" y="285"/>
      <point x="408" y="204" type="curve" smooth="yes"/>
      <point x="408" y="133"/>
      <point x="387" y="93"/>
      <point x="352" y="68" type="curve"/>
      <point x="325" y="62"/>
      <point x="297" y="60"/>
      <point x="271" y="60" type="curve" smooth="yes"/>
      <point x="205" y="60"/>
      <point x="142" y="77"/>
      <point x="87" y="112" type="curve"/>
    </contour>
  </outline>
</glyph>
<glyph name="A" format="2">
  <advance width="709"/>
  <unicode hex="0041"/>
  <anchor x="410" y="720" name="top.UC"/>
  <outline>
    <contour>
      <point x="0" y="1" type="line" smooth="yes"/>
      <point x="0" y="0"/>
      <point x="65" y="-1"/>
      <point x="130" y="-1" type="curve" smooth="yes"/>
      <point x="194" y="-1"/>
      <point x="259" y="0"/>
      <point x="259" y="1" type="curve" smooth="yes"/>
      <point x="259" y="50" type="line"/>
      <point x="149" y="74" type="line"/>
      <point x="115" y="74" type="line"/>
      <point x="0" y="50" type="line"/>
    </contour>
    <contour>
      <point x="208" y="233" type="line"/>
      <point x="509" y="233" type="line"/>
      <point x="509" y="303" type="line"/>
      <point x="208" y="303" type="line"/>
    </contour>
    <contour>
      <point x="471" y="1" type="line" smooth="yes"/>
      <point x="471" y="0"/>
      <point x="536" y="-1"/>
      <point x="600" y="-1" type="curve" smooth="yes"/>
      <point x="665" y="-1"/>
      <point x="729" y="0"/>
      <point x="729" y="1" type="curve" smooth="yes"/>
      <point x="729" y="50" type="line"/>
      <point x="619" y="74" type="line"/>
      <point x="585" y="74" type="line"/>
      <point x="471" y="50" type="line"/>
    </contour>
    <contour>
      <point x="410" y="720" type="line"/>
      <point x="315" y="720" type="line"/>
      <point x="178" y="341" type="line"/>
      <point x="61" y="41" type="line"/>
      <point x="168" y="41" type="line"/>
      <point x="256" y="341" type="line"/>
      <point x="385" y="688" type="line"/>
      <point x="349" y="651" type="line"/>
      <point x="464" y="341" type="line"/>
      <point x="562" y="41" type="line"/>
      <point x="658" y="41" type="line"/>
      <point x="547" y="341" type="line"/>
    </contour>
  </outline>
</glyph>
<glyph name="B" format="2">
  <advance width="657"/>
  <unicode hex="0042"/>
  <outline>
    <contour>
      <point x="50" y="0" type="line"/>
      <point x="304" y="0" type="line"/>
      <point x="304" y="49" type="line"/>
      <point x="194" y="73" type="line"/>
      <point x="160" y="73" type="line"/>
      <point x="50" y="49" type="line"/>
    </contour>
    <contour>
      <point x="124" y="26" type="line"/>
      <point x="228" y="26" type="line"/>
      <point x="218" y="376" type="line"/>
      <point x="228" y="707" type="line"/>
      <point x="124" y="707" type="line"/>
      <point x="134" y="360" type="line"/>
    </contour>
    <contour>
      <point x="140" y="647" type="line"/>
      <point x="174" y="647" type="line"/>
      <point x="252" y="720" type="line"/>
      <point x="253" y="720"/>
      <point x="29" y="720"/>
      <point x="30" y="720" type="curve"/>
      <point x="30" y="671" type="line"/>
    </contour>
    <contour>
      <point x="163" y="720" type="curve"/>
      <point x="195" y="653" type="line"/>
      <point x="296" y="654" type="line"/>
      <point x="419" y="663"/>
      <point x="476" y="611"/>
      <point x="476" y="523" type="curve" smooth="yes"/>
      <point x="476" y="459"/>
      <point x="436" y="415"/>
      <point x="362" y="397" type="curve"/>
      <point x="193" y="397" type="line"/>
      <point x="193" y="331" type="line"/>
      <point x="300" y="331"/>
      <point x="384" y="332"/>
      <point x="405" y="332" type="curve" smooth="yes"/>
      <point x="473" y="332"/>
      <point x="529" y="274"/>
      <point x="529" y="202" type="curve" smooth="yes"/>
      <point x="529" y="118"/>
      <point x="499" y="81"/>
      <point x="412" y="60" type="curve"/>
      <point x="228" y="70" type="line"/>
      <point x="185" y="0" type="line"/>
      <point x="298" y="-3"/>
      <point x="380" y="-5"/>
      <point x="415" y="-5" type="curve" smooth="yes"/>
      <point x="529" y="-5"/>
      <point x="617" y="80"/>
      <point x="617" y="189" type="curve" smooth="yes"/>
      <point x="617" y="280"/>
      <point x="568" y="352"/>
      <point x="487" y="383" type="curve"/>
      <point x="536" y="425"/>
      <point x="564" y="483"/>
      <point x="564" y="540" type="curve" smooth="yes"/>
      <point x="564" y="646"/>
      <point x="470" y="725"/>
      <point x="344" y="725" type="curve" smooth="yes"/>
      <point x="322" y="725"/>
      <point x="261" y="723"/>
    </contour>
  </outline>
</glyph>
<glyph name="C" format="2">
  <advance width="692"/>
  <unicode hex="0043"/>
  <guideline x="657" y="610" angle="270"/>
  <outline>
    <contour>
      <point x="50" y="364" type="curve" smooth="yes"/>
      <point x="50" y="118"/>
      <point x="149" y="-15"/>
      <point x="377" y="-15" type="curve" smooth="yes"/>
      <point x="504" y="-15"/>
      <point x="560" y="17"/>
      <point x="634" y="63" type="curve"/>
      <point x="602" y="127" type="line"/>
      <point x="549" y="101"/>
      <point x="499" y="81"/>
      <point x="462" y="66" type="curve"/>
      <point x="435" y="64"/>
      <point x="420" y="63"/>
      <point x="409" y="63" type="curve" smooth="yes"/>
      <point x="213" y="63"/>
      <point x="145" y="170"/>
      <point x="145" y="362" type="curve" smooth="yes"/>
      <point x="145" y="501"/>
      <point x="176" y="584"/>
      <point x="248" y="646" type="curve"/>
      <point x="287" y="652"/>
      <point x="329" y="657"/>
      <point x="366" y="657" type="curve" smooth="yes"/>
      <point x="448" y="657"/>
      <point x="526" y="634"/>
      <point x="583" y="593" type="curve"/>
      <point x="549" y="672" type="line"/>
      <point x="555" y="490" type="line"/>
      <point x="626" y="490" type="line"/>
      <point x="652" y="654" type="line"/>
      <point x="589" y="696"/>
      <point x="470" y="736"/>
      <point x="378" y="736" type="curve" smooth="yes"/>
      <point x="173" y="736"/>
      <point x="50" y="605"/>
    </contour>
  </outline>
</glyph>
<glyph name="F" format="2">
  <advance width="592"/>
  <unicode hex="0046"/>
  <outline>
    <contour>
      <point x="492" y="516" type="line"/>
      <point x="562" y="516" type="line"/>
      <point x="562" y="720" type="line"/>
      <point x="40" y="720" type="line"/>
      <point x="40" y="671" type="line"/>
      <point x="150" y="641" type="line"/>
      <point x="518" y="642" type="line"/>
      <point x="467" y="691" type="line"/>
    </contour>
    <contour>
      <point x="30" y="0" type="line"/>
      <point x="29" y="0"/>
      <point x="310" y="0"/>
      <point x="309" y="0" type="curve"/>
      <point x="309" y="49" type="line"/>
      <point x="178" y="79" type="line"/>
      <point x="150" y="79" type="line"/>
      <point x="30" y="49" type="line"/>
    </contour>
    <contour>
      <point x="109" y="26" type="line"/>
      <point x="213" y="26" type="line"/>
      <point x="203" y="360" type="line"/>
      <point x="213" y="703" type="line"/>
      <point x="109" y="703" type="line"/>
      <point x="119" y="360" type="line"/>
    </contour>
    <contour>
      <point x="459" y="318" type="line"/>
      <point x="480" y="379" type="line"/>
      <point x="461" y="411" type="line"/>
      <point x="334" y="402" type="line"/>
      <point x="179" y="403" type="line"/>
      <point x="179" y="332" type="line"/>
      <point x="334" y="330" type="line"/>
    </contour>
  </outline>
</glyph>
<glyph name="H" format="2">
  <advance width="779"/>
  <unicode hex="0048"/>
  <outline>
    <contour>
      <point x="565" y="26" type="line"/>
      <point x="669" y="26" type="line"/>
      <point x="659" y="360" type="line"/>
      <point x="669" y="707" type="line"/>
      <point x="565" y="707" type="line"/>
      <point x="575" y="360" type="line"/>
    </contour>
    <contour>
      <point x="30" y="0" type="line"/>
      <point x="288" y="0" type="line"/>
      <point x="288" y="51" type="line"/>
      <point x="174" y="73" type="line"/>
      <point x="140" y="73" type="line"/>
      <point x="30" y="51" type="line"/>
    </contour>
    <contour>
      <point x="104" y="26" type="line"/>
      <point x="208" y="26" type="line"/>
      <point x="198" y="360" type="line"/>
      <point x="208" y="707" type="line"/>
      <point x="104" y="707" type="line"/>
      <point x="114" y="360" type="line"/>
    </contour>
    <contour>
      <point x="491" y="0" type="line"/>
      <point x="749" y="0" type="line"/>
      <point x="749" y="51" type="line"/>
      <point x="635" y="71" type="line"/>
      <point x="601" y="71" type="line"/>
      <point x="491" y="51" type="line"/>
    </contour>
    <contour>
      <point x="175" y="331" type="line"/>
      <point x="600" y="331" type="line"/>
      <point x="600" y="403" type="line"/>
      <point x="175" y="403" type="line"/>
    </contour>
    <contour>
      <point x="140" y="647" type="line"/>
      <point x="174" y="647" type="line"/>
      <point x="288" y="671" type="line"/>
      <point x="288" y="720" type="line"/>
      <point x="30" y="720" type="line"/>
      <point x="30" y="671" type="line"/>
    </contour>
    <contour>
      <point x="601" y="647" type="line"/>
      <point x="635" y="647" type="line"/>
      <point x="749" y="671" type="line"/>
      <point x="749" y="720" type="line"/>
      <point x="491" y="720" type="line"/>
      <point x="491" y="671" type="line"/>
    </contour>
  </outline>
</glyph>
<glyph name="T" format="2">
  <advance width="628"/>
  <unicode hex="0054"/>
  <outline>
    <contour>
      <point x="10" y="515" type="line"/>
      <point x="77" y="515" type="line"/>
      <point x="98" y="645" type="line"/>
      <point x="534" y="645" type="line"/>
      <point x="555" y="515" type="line"/>
      <point x="618" y="515" type="line"/>
      <point x="618" y="720" type="line"/>
      <point x="10" y="720" type="line"/>
    </contour>
    <contour>
      <point x="167" y="0" type="line"/>
      <point x="461" y="0" type="line"/>
      <point x="461" y="49" type="line"/>
      <point x="331" y="73" type="line"/>
      <point x="297" y="73" type="line"/>
      <point x="167" y="49" type="line"/>
    </contour>
    <contour>
      <point x="262" y="26" type="line"/>
      <point x="366" y="26" type="line"/>
      <point x="356" y="360" type="line"/>
      <point x="366" y="703" type="line"/>
      <point x="262" y="703" type="line"/>
      <point x="272" y="360" type="line"/>
    </contour>
  </outline>
</glyph>
<glyph name="V" format="2">
  <advance width="728"/>
  <unicode hex="0056"/>
  <guideline x="157" y="627" angle="0"/>
  <outline>
    <contour>
      <point x="321" y="0" type="line"/>
      <point x="417" y="0" type="line"/>
      <point x="550" y="380" type="line"/>
      <point x="669" y="680" type="line"/>
      <point x="564" y="680" type="line"/>
      <point x="474" y="380" type="line"/>
      <point x="349" y="52" type="line"/>
      <point x="382" y="89" type="line"/>
      <point x="276" y="380" type="line"/>
      <point x="174" y="680" type="line"/>
      <point x="56" y="680" type="line"/>
      <point x="186" y="380" type="line"/>
    </contour>
    <contour>
      <point x="110" y="647" type="line"/>
      <point x="144" y="647" type="line"/>
      <point x="258" y="671" type="line"/>
      <point x="258" y="720" type="line"/>
      <point x="0" y="720" type="line"/>
      <point x="0" y="671" type="line"/>
    </contour>
    <contour>
      <point x="580" y="647" type="line"/>
      <point x="614" y="647" type="line"/>
      <point x="728" y="671" type="line"/>
      <point x="728" y="720" type="line"/>
      <point x="470" y="720" type="line"/>
      <point x="470" y="671" type="line"/>
    </contour>
  </outline>
</glyph>
<glyph name="b" format="2">
  <advance width="599"/>
  <unicode hex="0062"/>
  <outline>
    <contour>
      <point x="87" y="0" type="line"/>
      <point x="141" y="0" type="line"/>
      <point x="180" y="68" type="line"/>
      <point x="173" y="255" type="line"/>
      <point x="180" y="780" type="line"/>
      <point x="144" y="780" type="line"/>
      <point x="7" y="770" type="line"/>
      <point x="7" y="717" type="line"/>
      <point x="88" y="700" type="line"/>
      <point x="94" y="256" type="line"/>
    </contour>
    <contour>
      <point x="111" y="99" type="line"/>
      <point x="169" y="36"/>
      <point x="215" y="-18"/>
      <point x="335" y="-18" type="curve" smooth="yes"/>
      <point x="460" y="-18"/>
      <point x="549" y="88"/>
      <point x="549" y="251" type="curve" smooth="yes"/>
      <point x="549" y="413"/>
      <point x="475" y="513"/>
      <point x="292" y="514" type="curve"/>
      <point x="213" y="488"/>
      <point x="170" y="425"/>
      <point x="125" y="380" type="curve"/>
      <point x="152" y="329" type="line"/>
      <point x="179" y="361"/>
      <point x="237" y="427"/>
      <point x="295" y="445" type="curve"/>
      <point x="419" y="440"/>
      <point x="457" y="366"/>
      <point x="457" y="240" type="curve" smooth="yes"/>
      <point x="457" y="156"/>
      <point x="439" y="95"/>
      <point x="386" y="55" type="curve"/>
      <point x="370" y="53"/>
      <point x="356" y="53"/>
      <point x="342" y="53" type="curve" smooth="yes"/>
      <point x="261" y="53"/>
      <point x="205" y="79"/>
      <point x="153" y="146" type="curve"/>
    </contour>
  </outline>
</glyph>
<glyph name="g" format="2">
  <advance width="553"/>
  <unicode hex="0067"/>
  <outline>
    <contour>
      <point x="393" y="419" type="line"/>
      <point x="434" y="445"/>
      <point x="475" y="460"/>
      <point x="516" y="464" type="curve"/>
      <point x="521" y="514" type="line"/>
      <point x="465" y="521" type="line"/>
      <point x="421" y="502"/>
      <point x="390" y="476"/>
      <point x="360" y="443" type="curve"/>
    </contour>
    <contour>
      <point x="30" y="-49" type="curve"/>
      <point x="30" y="-136"/>
      <point x="102" y="-220"/>
      <point x="274" y="-220" type="curve" smooth="yes"/>
      <point x="436" y="-220"/>
      <point x="523" y="-169"/>
      <point x="523" y="-76" type="curve" smooth="yes"/>
      <point x="523" y="-19"/>
      <point x="468" y="42"/>
      <point x="404" y="42" type="curve"/>
      <point x="210" y="42" type="line"/>
      <point x="178" y="42"/>
      <point x="161" y="87"/>
      <point x="159" y="113" type="curve"/>
      <point x="178" y="150"/>
      <point x="205" y="169"/>
      <point x="228" y="185" type="curve"/>
      <point x="195" y="221" type="line"/>
      <point x="150" y="194"/>
      <point x="108" y="168"/>
      <point x="77" y="112" type="curve"/>
      <point x="77" y="102" type="line"/>
      <point x="80" y="91"/>
      <point x="94" y="53"/>
      <point x="106" y="35" type="curve"/>
      <point x="78" y="14"/>
      <point x="40" y="-15"/>
    </contour>
    <contour>
      <point x="112" y="-56" type="curve"/>
      <point x="172" y="24" type="line"/>
      <point x="133" y="3" type="line"/>
      <point x="158" y="-18"/>
      <point x="184" y="-28"/>
      <point x="247" y="-28" type="curve" smooth="yes"/>
      <point x="425" y="-28" type="line"/>
      <point x="437" y="-49"/>
      <point x="443" y="-67"/>
      <point x="443" y="-80" type="curve" smooth="yes"/>
      <point x="443" y="-98"/>
      <point x="434" y="-114"/>
      <point x="419" y="-135" type="curve"/>
      <point x="370" y="-150"/>
      <point x="325" y="-155"/>
      <point x="289" y="-155" type="curve" smooth="yes"/>
      <point x="151" y="-155"/>
      <point x="112" y="-120"/>
    </contour>
    <contour>
      <point x="94" y="315" type="curve" smooth="yes"/>
      <point x="94" y="195"/>
      <point x="150" y="129"/>
      <point x="279" y="129" type="curve" smooth="yes"/>
      <point x="398" y="129"/>
      <point x="467" y="197"/>
      <point x="467" y="315" type="curve" smooth="yes"/>
      <point x="467" y="435"/>
      <point x="411" y="500"/>
      <point x="281" y="500" type="curve" smooth="yes"/>
      <point x="164" y="500"/>
      <point x="94" y="435"/>
    </contour>
    <contour>
      <point x="178" y="315" type="curve" smooth="yes"/>
      <point x="178" y="376"/>
      <point x="192" y="406"/>
      <point x="224" y="434" type="curve"/>
      <point x="238" y="436"/>
      <point x="262" y="438"/>
      <point x="274" y="438" type="curve" smooth="yes"/>
      <point x="355" y="438"/>
      <point x="383" y="400"/>
      <point x="383" y="315" type="curve" smooth="yes"/>
      <point x="383" y="255"/>
      <point x="369" y="223"/>
      <point x="338" y="195" type="curve"/>
      <point x="325" y="193"/>
      <point x="299" y="190"/>
      <point x="287" y="190" type="curve" smooth="yes"/>
      <point x="208" y="190"/>
      <point x="178" y="231"/>
    </contour>
  </outline>
</glyph>
<glyph name="h" format="2">
  <advance width="642"/>
  <unicode hex="0068"/>
  <outline>
    <contour>
      <point x="454" y="28" type="line"/>
      <point x="549" y="28" type="line"/>
      <point x="539" y="254" type="line"/>
      <point x="539" y="259"/>
      <point x="539" y="265"/>
      <point x="539" y="270" type="curve" smooth="yes"/>
      <point x="539" y="417"/>
      <point x="524" y="503"/>
      <point x="412" y="503" type="curve" smooth="yes"/>
      <point x="331" y="503"/>
      <point x="226" y="443"/>
      <point x="159" y="373" type="curve"/>
      <point x="188" y="331" type="line"/>
      <point x="282" y="402"/>
      <point x="360" y="418"/>
      <point x="436" y="434" type="curve"/>
      <point x="422" y="443" type="line"/>
      <point x="451" y="401"/>
      <point x="459" y="355"/>
      <point x="459" y="282" type="curve" smooth="yes"/>
      <point x="459" y="273"/>
      <point x="459" y="264"/>
      <point x="459" y="254" type="curve"/>
    </contour>
    <contour>
      <point x="376" y="0" type="line"/>
      <point x="622" y="0" type="line"/>
      <point x="622" y="51" type="line"/>
      <point x="517" y="73" type="line"/>
      <point x="483" y="73" type="line"/>
      <point x="376" y="51" type="line"/>
    </contour>
    <contour>
      <point x="35" y="0" type="line"/>
      <point x="277" y="0" type="line"/>
      <point x="277" y="51" type="line"/>
      <point x="203" y="67" type="line"/>
      <point x="196" y="255" type="line"/>
      <point x="203" y="780" type="line"/>
      <point x="166" y="780" type="line"/>
      <point x="30" y="770" type="line"/>
      <point x="30" y="717" type="line"/>
      <point x="111" y="700" type="line"/>
      <point x="115" y="256" type="line"/>
      <point x="108" y="66" type="line"/>
      <point x="35" y="51" type="line"/>
    </contour>
  </outline>
</glyph>
<glyph name="j" format="2">
  <advance width="299"/>
  <unicode hex="006A"/>
  <outline>
    <contour>
      <point x="161" y="574" type="curve"/>
      <point x="180" y="574"/>
      <point x="232" y="630"/>
      <point x="232" y="653" type="curve"/>
      <point x="232" y="673"/>
      <point x="189" y="711"/>
      <point x="166" y="711" type="curve" smooth="yes"/>
      <point x="140" y="711"/>
      <point x="91" y="658"/>
      <point x="91" y="633" type="curve"/>
      <point x="91" y="612"/>
      <point x="140" y="574"/>
    </contour>
    <contour>
      <point x="-20" y="-198" type="line"/>
      <point x="-3" y="-208"/>
      <point x="12" y="-216"/>
      <point x="37" y="-226" type="curve"/>
      <point x="193" y="-219"/>
      <point x="219" y="-112"/>
      <point x="219" y="51" type="curve" smooth="yes"/>
      <point x="219" y="106"/>
      <point x="217" y="168"/>
      <point x="214" y="235" type="curve"/>
      <point x="224" y="490" type="line"/>
      <point x="191" y="490" type="line"/>
      <point x="52" y="480" type="line"/>
      <point x="52" y="426" type="line"/>
      <point x="126" y="410" type="line"/>
      <point x="134" y="235" type="line"/>
      <point x="134" y="77"/>
      <point x="132" y="-71"/>
      <point x="111" y="-129" type="curve"/>
      <point x="83" y="-136"/>
      <point x="55" y="-139"/>
      <point x="27" y="-139" type="curve" smooth="yes"/>
      <point x="14" y="-139"/>
      <point x="2" y="-139"/>
      <point x="-11" y="-137" type="curve"/>
    </contour>
  </outline>
</glyph>
<glyph name="q" format="2">
  <advance width="611"/>
  <unicode hex="0071"/>
  <outline>
    <contour>
      <point x="488" y="397" type="line"/>
      <point x="432" y="460"/>
      <point x="384" y="514"/>
      <point x="264" y="514" type="curve" smooth="yes"/>
      <point x="139" y="514"/>
      <point x="50" y="408"/>
      <point x="50" y="245" type="curve" smooth="yes"/>
      <point x="50" y="83"/>
      <point x="124" y="-18"/>
      <point x="307" y="-18" type="curve"/>
      <point x="386" y="8"/>
      <point x="437" y="70"/>
      <point x="474" y="116" type="curve"/>
      <point x="447" y="167" type="line"/>
      <point x="421" y="137"/>
      <point x="362" y="69"/>
      <point x="304" y="51" type="curve"/>
      <point x="180" y="56"/>
      <point x="142" y="130"/>
      <point x="142" y="256" type="curve" smooth="yes"/>
      <point x="142" y="340"/>
      <point x="160" y="401"/>
      <point x="213" y="441" type="curve"/>
      <point x="229" y="443"/>
      <point x="243" y="443"/>
      <point x="257" y="443" type="curve" smooth="yes"/>
      <point x="338" y="443"/>
      <point x="394" y="417"/>
      <point x="446" y="350" type="curve"/>
    </contour>
    <contour>
      <point x="337" y="-220" type="line"/>
      <point x="584" y="-220" type="line"/>
      <point x="584" y="-172" type="line"/>
      <point x="509" y="-149" type="line"/>
      <point x="504" y="175" type="line"/>
      <point x="514" y="490" type="line"/>
      <point x="460" y="490" type="line"/>
      <point x="415" y="426" type="line"/>
      <point x="419" y="173" type="line"/>
      <point x="414" y="-150" type="line"/>
      <point x="337" y="-172" type="line"/>
    </contour>
  </outline>
</glyph>
<glyph name="s" format="2">
  <advance width="479"/>
  <unicode hex="0073"/>
  <guideline x="429" y="404" angle="262.7857"/>
  <outline>
    <contour>
      <point x="417" y="452" type="curve"/>
      <point x="363" y="413" type="line"/>
      <point x="318" y="441"/>
      <point x="285" y="450"/>
      <point x="242" y="450" type="curve" smooth="yes"/>
      <point x="213" y="450"/>
      <point x="186" y="444"/>
      <point x="149" y="431" type="curve"/>
      <point x="194" y="471" type="line"/>
      <point x="155" y="436"/>
      <point x="135" y="405"/>
      <point x="135" y="370" type="curve" smooth="yes"/>
      <point x="135" y="338"/>
      <point x="157" y="311"/>
      <point x="207" y="299" type="curve" smooth="yes"/>
      <point x="254" y="288"/>
      <point x="283" y="287"/>
      <point x="331" y="274" type="curve" smooth="yes"/>
      <point x="411" y="252"/>
      <point x="439" y="195"/>
      <point x="439" y="133" type="curve" smooth="yes"/>
      <point x="439" y="46"/>
      <point x="366" y="-15"/>
      <point x="242" y="-15" type="curve" smooth="yes"/>
      <point x="171" y="-15"/>
      <point x="95" y="2"/>
      <point x="50" y="44" type="curve"/>
      <point x="95" y="106" type="line"/>
      <point x="139" y="57"/>
      <point x="188" y="49"/>
      <point x="251" y="49" type="curve" smooth="yes"/>
      <point x="288" y="49"/>
      <point x="326" y="58"/>
      <point x="358" y="75" type="curve"/>
      <point x="309" y="38" type="line"/>
      <point x="343" y="62"/>
      <point x="357" y="101"/>
      <point x="357" y="127" type="curve" smooth="yes"/>
      <point x="357" y="168"/>
      <point x="329" y="197"/>
      <point x="275" y="207" type="curve" smooth="yes"/>
      <point x="240" y="213"/>
      <point x="196" y="222"/>
      <point x="166" y="230" type="curve" smooth="yes"/>
      <point x="86" y="251"/>
      <point x="55" y="305"/>
      <point x="55" y="354" type="curve" smooth="yes"/>
      <point x="55" y="456"/>
      <point x="142" y="514"/>
      <point x="236" y="514" type="curve" smooth="yes"/>
      <point x="322" y="514"/>
      <point x="386" y="484"/>
    </contour>
    <contour>
      <point x="417" y="452" type="line"/>
      <point x="404" y="341" type="line"/>
      <point x="341" y="341" type="line"/>
      <point x="331" y="475" type="line"/>
    </contour>
    <contour>
      <point x="50" y="44" type="line"/>
      <point x="66" y="154" type="line"/>
      <point x="134" y="154" type="line"/>
      <point x="140" y="21" type="line"/>
    </contour>
  </outline>
</glyph>
<glyph name="t" format="2">
  <advance width="403"/>
  <unicode hex="0074"/>
  <outline>
    <contour>
      <point x="225" y="-14" type="curve" smooth="yes"/>
      <point x="262" y="-14"/>
      <point x="317" y="-6"/>
      <point x="383" y="27" type="curve"/>
      <point x="356" y="86" type="line"/>
      <point x="296" y="59"/>
      <point x="250" y="50"/>
      <point x="169" y="42" type="curve"/>
      <point x="239" y="42" type="line"/>
      <point x="185" y="95"/>
      <point x="190" y="116"/>
      <point x="186" y="251" type="curve"/>
      <point x="204" y="591" type="line"/>
      <point x="163" y="591" type="line"/>
      <point x="93" y="483" type="line"/>
      <point x="100" y="475" type="line"/>
      <point x="106" y="254" type="line"/>
      <point x="104" y="231"/>
      <point x="104" y="201"/>
      <point x="104" y="175" type="curve" smooth="yes"/>
      <point x="104" y="76"/>
      <point x="120" y="-14"/>
    </contour>
    <contour>
      <point x="337" y="414" type="line"/>
      <point x="358" y="465" type="line"/>
      <point x="339" y="497" type="line"/>
      <point x="30" y="481" type="line"/>
      <point x="30" y="428" type="line"/>
      <point x="212" y="422" type="line"/>
    </contour>
  </outline>
</glyph>
<glyph name="v" format="2">
  <advance width="566"/>
  <unicode hex="0076"/>
  <outline>
    <contour>
      <point x="234" y="0" type="line"/>
      <point x="324" y="0" type="line"/>
      <point x="422" y="259" type="line"/>
      <point x="509" y="462" type="line"/>
      <point x="419" y="462" type="line"/>
      <point x="354" y="259" type="line"/>
      <point x="259" y="43" type="line"/>
      <point x="297" y="69" type="line"/>
      <point x="216" y="259" type="line"/>
      <point x="145" y="462" type="line"/>
      <point x="42" y="462" type="line"/>
      <point x="136" y="259" type="line"/>
    </contour>
    <contour>
      <point x="96" y="417" type="line"/>
      <point x="130" y="417" type="line"/>
      <point x="215" y="437" type="line"/>
      <point x="215" y="490" type="line"/>
      <point x="0" y="490" type="line"/>
      <point x="0" y="437" type="line"/>
    </contour>
    <contour>
      <point x="437" y="417" type="line"/>
      <point x="471" y="417" type="line"/>
      <point x="556" y="437" type="line"/>
      <point x="556" y="490" type="line"/>
      <point x="349" y="490" type="line"/>
      <point x="349" y="437" type="line"/>
    </contour>
  </outline>
</glyph>
<glyph name="x" format="2">
  <advance width="582"/>
  <unicode hex="0078"/>
  <outline>
    <contour>
      <point x="438" y="0" type="line"/>
      <point x="550" y="0" type="line"/>
      <point x="314" y="271" type="line"/>
      <point x="167" y="462" type="line"/>
      <point x="60" y="462" type="line"/>
      <point x="249" y="239" type="line"/>
    </contour>
    <contour>
      <point x="141" y="417" type="line"/>
      <point x="175" y="417" type="line"/>
      <point x="245" y="437" type="line"/>
      <point x="245" y="490" type="line"/>
      <point x="35" y="490" type="line"/>
      <point x="35" y="437" type="line"/>
    </contour>
    <contour>
      <point x="433" y="72" type="line"/>
      <point x="342" y="52" type="line"/>
      <point x="342" y="0" type="line"/>
      <point x="552" y="0" type="line"/>
      <point x="552" y="52" type="line"/>
      <point x="467" y="72" type="line"/>
    </contour>
    <contour>
      <point x="262" y="269" type="line"/>
      <point x="164" y="151" type="line"/>
      <point x="31" y="0" type="line"/>
      <point x="131" y="0" type="line"/>
      <point x="219" y="118" type="line"/>
      <point x="312" y="223" type="line"/>
    </contour>
    <contour>
      <point x="438" y="417" type="line"/>
      <point x="544" y="437" type="line"/>
      <point x="544" y="490" type="line"/>
      <point x="334" y="490" type="line"/>
      <point x="334" y="437" type="line"/>
      <point x="404" y="417" type="line"/>
    </contour>
    <contour>
      <point x="149" y="72" type="line"/>
      <point x="115" y="72" type="line"/>
      <point x="30" y="52" type="line"/>
      <point x="30" y="0" type="line"/>
      <point x="240" y="0" type="line"/>
      <point x="240" y="52" type="line"/>
    </contour>
    <contour>
      <point x="274" y="272" type="line"/>
      <point x="320" y="238" type="line"/>
      <point x="516" y="462" type="line"/>
      <point x="419" y="462" type="line"/>
      <point x="345" y="361" type="line"/>
    </contour>
  </outline>
</glyph>
<glyph name="guillemetleft" format="2">
  <advance width="507"/>
  <unicode hex="00AB"/>
  <guideline x="442" y="271" angle="0"/>
  <guideline x="233" y="482" angle="0"/>
  <guideline x="282" y="296" angle="90"/>
  <guideline x="442" y="69" angle="0"/>
  <outline>
    <contour>
      <point x="393" y="69" type="line"/>
      <point x="447" y="104" type="line"/>
      <point x="339" y="264" type="line"/>
      <point x="447" y="425" type="line"/>
      <point x="393" y="461" type="line"/>
      <point x="265" y="294" type="line"/>
      <point x="265" y="234" type="line"/>
    </contour>
    <contour>
      <point x="198" y="69" type="line"/>
      <point x="252" y="104" type="line"/>
      <point x="144" y="264" type="line"/>
      <point x="252" y="426" type="line"/>
      <point x="198" y="461" type="line"/>
      <point x="70" y="294" type="line"/>
      <point x="70" y="234" type="line"/>
    </contour>
  </outline>
</glyph>
<glyph name="questiondown" format="2">
  <advance width="462"/>
  <unicode hex="00BF"/>
  <guideline x="290" y="550" angle="0"/>
  <guideline x="223" y="-210" angle="0"/>
  <outline>
    <contour>
      <point x="422" y="-145" type="line"/>
      <point x="336" y="-168" type="line"/>
      <point x="348" y="-18" type="line"/>
      <point x="409" y="-18" type="line"/>
    </contour>
    <contour>
      <point x="245" y="397" type="curve"/>
      <point x="275" y="397"/>
      <point x="324" y="449"/>
      <point x="324" y="481" type="curve" smooth="yes"/>
      <point x="324" y="506"/>
      <point x="276" y="543"/>
      <point x="243" y="543" type="curve" smooth="yes"/>
      <point x="215" y="543"/>
      <point x="167" y="490"/>
      <point x="167" y="459" type="curve"/>
      <point x="167" y="433"/>
      <point x="212" y="397"/>
    </contour>
    <contour>
      <point x="50" y="-56" type="curve" smooth="yes"/>
      <point x="50" y="-14"/>
      <point x="77" y="33"/>
      <point x="117" y="62" type="curve" smooth="yes"/>
      <point x="151" y="86"/>
      <point x="185" y="108"/>
      <point x="213" y="124" type="curve" smooth="yes"/>
      <point x="254" y="148"/>
      <point x="272" y="172"/>
      <point x="272" y="204" type="curve" smooth="yes"/>
      <point x="272" y="214"/>
      <point x="270" y="226"/>
      <point x="266" y="239" type="curve"/>
      <point x="258" y="242"/>
      <point x="246" y="244"/>
      <point x="230" y="244" type="curve" smooth="yes"/>
      <point x="212" y="244"/>
      <point x="199" y="243"/>
      <point x="190" y="240" type="curve"/>
      <point x="163" y="274" type="line"/>
      <point x="184" y="311" type="line"/>
      <point x="235" y="311" type="line"/>
      <point x="301" y="311"/>
      <point x="350" y="268"/>
      <point x="350" y="210" type="curve" smooth="yes"/>
      <point x="350" y="152"/>
      <point x="328" y="116"/>
      <point x="271" y="81" type="curve" smooth="yes"/>
      <point x="231" y="55"/>
      <point x="210" y="41"/>
      <point x="187" y="26" type="curve" smooth="yes"/>
      <point x="153" y="1"/>
      <point x="139" y="-25"/>
      <point x="139" y="-62" type="curve" smooth="yes"/>
      <point x="139" y="-93"/>
      <point x="148" y="-116"/>
      <point x="166" y="-132" type="curve"/>
      <point x="197" y="-144"/>
      <point x="218" y="-144"/>
      <point x="248" y="-144" type="curve" smooth="yes"/>
      <point x="290" y="-144"/>
      <point x="337" y="-130"/>
      <point x="376" y="-106" type="curve"/>
      <point x="422" y="-145" type="line"/>
      <point x="382" y="-187"/>
      <point x="313" y="-212"/>
      <point x="238" y="-212" type="curve" smooth="yes"/>
      <point x="114" y="-212"/>
      <point x="50" y="-159"/>
    </contour>
  </outline>
</glyph>
<glyph name="dieresiscomb" format="2">
  <unicode hex="0308"/>
  <anchor x="0" y="490" name="_top.LC"/>
  <outline>
    <contour>
      <point x="98" y="577" type="curve" smooth="yes"/>
      <point x="116" y="577"/>
      <point x="167" y="627"/>
      <point x="167" y="648" type="curve" smooth="yes"/>
      <point x="167" y="666"/>
      <point x="126" y="700"/>
      <point x="103" y="700" type="curve" smooth="yes"/>
      <point x="78" y="700"/>
      <point x="30" y="652"/>
      <point x="30" y="630" type="curve" smooth="yes"/>
      <point x="30" y="611"/>
      <point x="78" y="577"/>
    </contour>
    <contour>
      <point x="-106" y="577" type="curve" smooth="yes"/>
      <point x="-88" y="577"/>
      <point x="-37" y="627"/>
      <point x="-37" y="648" type="curve" smooth="yes"/>
      <point x="-37" y="666"/>
      <point x="-78" y="700"/>
      <point x="-101" y="700" type="curve" smooth="yes"/>
      <point x="-126" y="700"/>
      <point x="-174" y="652"/>
      <point x="-174" y="630" type="curve" smooth="yes"/>
      <point x="-174" y="611"/>
      <point x="-126" y="577"/>
    </contour>
  </outline>
</glyph>
<glyph name="acute.case" format="2">
  <anchor x="0" y="720" name="_top.UC"/>
  <outline>
    <contour>
      <point x="150" y="934" type="line"/>
      <point x="101" y="960" type="line"/>
      <point x="-85" y="822" type="line"/>
      <point x="-57" y="773" type="line"/>
      <point x="137" y="876" type="line"/>
    </contour>
  </outline>
</glyph>
